<?xml version="1.0" encoding="utf-8"?>
<!-- Generator: Adobe Illustrator 16.0.0, SVG Export Plug-In . SVG Version: 6.00 Build 0)  -->
<!DOCTYPE svg PUBLIC "-//W3C//DTD SVG 1.1//EN" "http://www.w3.org/Graphics/SVG/1.1/DTD/svg11.dtd">
<svg version="1.1" id="Layer_1" xmlns="http://www.w3.org/2000/svg" xmlns:xlink="http://www.w3.org/1999/xlink" x="0px" y="0px"
	 width="627.074px" height="627.079px" viewBox="0 0 627.074 627.079" enable-background="new 0 0 627.074 627.079"
	 xml:space="preserve">
<g>
	<circle fill="#D3D3D3" cx="314.278" cy="312.795" r="309.796"/>
	<g>
		<g>
			<g>
				<path fill="#81929B" d="M409.61,483.286l6.533,67.273c0,0-75.557-37.839-73.894-36.422L409.61,483.286z"/>
				<path fill="#81929B" d="M430.246,474.82l6.535,67.272c0,0-75.56-37.839-73.896-36.422L430.246,474.82z"/>
				<path fill="#81929B" d="M218.048,485.972l-6.535,67.271c0,0,75.557-37.836,73.894-36.419L218.048,485.972z"/>
				<path fill="#81929B" d="M197.413,477.505l-6.536,67.273c0,0,75.558-37.839,73.895-36.422L197.413,477.505z"/>
				<path fill="#81929B" d="M488.896,305.173c0,0-29.023-208.09-77.709-257.56c-42.83-43.519-111.746,244.721-111.746,244.721
					L488.896,305.173z"/>
				<g>
					<path fill="#BDC6CB" d="M475.424,325.161c0,0-22.918-207.677-64.237-256.647c-36.35-43.079-98.275,245.634-98.275,245.634
						L475.424,325.161z"/>
				</g>
				<path fill="#81929B" d="M139.118,305.173c0,0,29.022-208.09,77.708-257.56c42.828-43.519,111.743,244.721,111.743,244.721
					L139.118,305.173z"/>
				<g>
					<path fill="#BDC6CB" d="M152.588,325.161c0,0,22.917-207.677,64.238-256.647c36.349-43.079,98.272,245.634,98.272,245.634
						L152.588,325.161z"/>
				</g>
				<path fill="#81929B" d="M505.279,365.168c0,120.003-191.001,217.287-191.001,217.287S123.28,485.171,123.28,365.168
					c0-120.005,85.514-217.289,190.999-217.289C419.764,147.879,505.279,245.163,505.279,365.168z"/>
				<path fill="#81929B" d="M505.279,365.168c0,120.003-191.001,217.287-191.001,217.287S123.28,485.171,123.28,365.168
					c0-120.005,85.514-217.289,190.999-217.289C419.764,147.879,505.279,245.163,505.279,365.168z"/>
				<g>
					<path fill="#444A53" d="M339.058,447.173"/>
					<g>
						<ellipse fill="#333333" cx="314.278" cy="439.739" rx="72.844" ry="64.753"/>
					</g>
					<g>
						<path class="tongue" fill="#D1868F" d="M361.814,451.418c0-26.251-21.283-47.535-47.536-47.535l0,0c-26.253,0-47.534,21.284-47.534,47.535
							v34.781c0,26.254,21.281,47.535,47.534,47.535l0,0c26.253,0,47.536-21.281,47.536-47.535V451.418z"/>
					</g>
					<ellipse fill="#81929B" cx="314.278" cy="415.854" rx="74.764" ry="71.494"/>
					<ellipse fill="#333333" cx="315.992" cy="435.58" rx="41.997" ry="31.701"/>
				</g>
				<g>
					<g>
						<circle fill="#0179A8" cx="251.283" cy="325.03" r="23.177"/>
					</g>
					<circle fill="#444A53" cx="251.283" cy="325.032" r="20.075"/>
				</g>
				<path fill="#444A53" d="M291.128,443.374c4.299,4.299,11.276,4.299,15.579,0c4.302-4.303,4.302-11.279,0-15.581
					c-4.303-4.303-11.279-4.303-15.579,0C286.823,432.095,286.823,439.071,291.128,443.374z"/>
				<circle fill="#444A53" cx="334.912" cy="435.581" r="11.016"/>
				<path fill="#576D7A" d="M408.004,286.77c0.524-2.946-1.368-5.748-4.232-6.258l-51.099-9.096
					c-2.862-0.51-5.607,1.467-6.132,4.413l0,0c-0.524,2.947,1.37,5.748,4.232,6.258l51.1,9.096
					C404.734,291.692,407.479,289.717,408.004,286.77L408.004,286.77z"/>
				<path fill="#BDC6CB" d="M289.357,294.089"/>
				<path fill="#576D7A" d="M282.496,282.976c0.007-2.992-2.342-5.424-5.249-5.431l-51.903-0.117
					c-2.908-0.007-5.269,2.415-5.275,5.407l0,0c-0.007,2.994,2.343,5.424,5.25,5.431l51.903,0.117
					C280.129,288.389,282.489,285.969,282.496,282.976L282.496,282.976z"/>
				<g>
					<g>
						<circle fill="#0179A8" cx="370.991" cy="325.03" r="23.177"/>
					</g>
					<circle fill="#444A53" cx="370.99" cy="325.032" r="20.075"/>
				</g>
			</g>
		</g>
	</g>
</g>
</svg>
