<?xml version="1.0" standalone="no"?>
<!DOCTYPE svg PUBLIC "-//W3C//DTD SVG 20010904//EN"
 "http://www.w3.org/TR/2001/REC-SVG-20010904/DTD/svg10.dtd">
<svg version="1.0" xmlns="http://www.w3.org/2000/svg"
 width="700.000000pt" height="700.000000pt" viewBox="0 0 700.000000 700.000000"
 preserveAspectRatio="xMidYMid meet">
<metadata>
Created by potrace 1.11, written by Peter Selinger 2001-2013
</metadata>
<g transform="translate(0.000000,700.000000) scale(0.100000,-0.100000)"
fill="#000000" stroke="none">
<path d="M3357 6964 c-1 -1 -48 -5 -104 -8 -55 -4 -112 -9 -125 -11 -12 -2
-45 -7 -73 -10 -119 -13 -354 -59 -440 -85 -16 -6 -77 -24 -135 -41 -436 -130
-915 -400 -1264 -712 -133 -119 -340 -335 -385 -400 -8 -12 -18 -24 -21 -27
-18 -15 -159 -213 -218 -306 -194 -306 -335 -628 -428 -979 -32 -125 -67 -297
-80 -394 -3 -25 -7 -57 -10 -71 -25 -159 -26 -682 0 -816 2 -11 7 -47 10 -80
4 -32 8 -66 11 -74 2 -8 6 -33 10 -55 3 -22 15 -80 26 -130 94 -405 242 -766
451 -1097 48 -76 91 -143 97 -150 6 -7 43 -56 83 -108 129 -171 315 -370 483
-516 118 -103 338 -264 447 -329 254 -150 463 -248 717 -336 47 -16 94 -31
106 -34 11 -2 51 -13 88 -24 38 -11 81 -22 95 -25 15 -3 45 -10 67 -15 38 -9
59 -13 138 -26 17 -3 39 -8 47 -10 8 -2 42 -7 75 -11 33 -3 69 -8 80 -10 100
-19 536 -26 705 -11 52 5 97 10 100 12 3 1 34 6 70 9 171 17 471 89 670 161
295 106 515 215 765 381 341 225 626 497 888 845 14 18 13 16 91 134 243 367
420 798 505 1230 47 241 64 414 64 670 0 471 -77 869 -252 1307 -17 43 -35 86
-40 95 -5 10 -30 63 -56 117 -250 522 -675 1012 -1171 1349 -380 258 -855 454
-1286 532 -46 8 -94 17 -108 19 -39 7 -188 24 -270 32 -70 6 -417 13 -423 8z"/>
</g>
</svg>
